<?xml version="1.0" standalone="no"?>
<!DOCTYPE svg PUBLIC "-//W3C//DTD SVG 20010904//EN"
 "http://www.w3.org/TR/2001/REC-SVG-20010904/DTD/svg10.dtd">
<svg version="1.0" xmlns="http://www.w3.org/2000/svg"
 width="427.000000pt" height="108.000000pt" viewBox="0 0 427.000000 108.000000"
 preserveAspectRatio="xMidYMid meet">
<metadata>
Created by potrace 1.16, written by Peter Selinger 2001-2019
</metadata>
<g transform="translate(0.000000,108.000000) scale(0.100000,-0.100000)"
fill="#000000" stroke="none">
<path d="M2810 851 c-131 -43 -193 -148 -188 -317 l3 -89 35 0 c29 0 36 4 38
22 3 17 12 24 40 28 62 11 62 11 62 65 0 100 51 162 104 127 26 -18 46 -70 46
-125 0 -28 3 -32 23 -27 12 3 53 10 92 15 38 6 70 12 71 13 1 1 -2 26 -8 56
-19 104 -64 173 -140 212 -45 23 -138 33 -178 20z"/>
<path d="M2166 818 c-3 -18 -6 -80 -7 -137 l-2 -105 37 -13 c21 -7 51 -24 68
-38 22 -18 38 -25 54 -21 12 3 35 1 51 -5 37 -14 203 -42 210 -36 8 9 -6 61
-27 95 -11 17 -38 41 -62 53 -35 18 -54 21 -115 17 l-73 -5 0 34 0 33 125 0
125 0 0 80 0 80 -189 0 -189 0 -6 -32z"/>
<path d="M535 691 c-120 -41 -277 -118 -283 -140 -5 -16 7 -13 153 44 61 24
139 51 175 61 93 25 103 31 90 54 -6 11 -14 20 -18 20 -4 -1 -56 -18 -117 -39z"/>
<path d="M595 629 c-44 -16 -84 -30 -88 -31 -4 -2 7 -18 25 -35 l33 -32 87 42
c80 39 85 44 77 65 -11 29 -33 27 -134 -9z"/>
<path d="M295 502 c-85 -44 -111 -62 -113 -79 -4 -26 11 -29 52 -13 43 16 29
2 -24 -25 -50 -25 -58 -37 -41 -64 8 -12 24 -8 93 23 46 21 88 43 94 49 20 22
73 167 61 167 -7 -1 -61 -26 -122 -58z"/>
<path d="M3067 480 c3 -11 0 -26 -6 -34 -6 -7 -9 -21 -5 -30 5 -13 0 -16 -25
-16 -21 0 -31 -5 -31 -15 0 -8 -6 -15 -14 -15 -8 0 -16 -10 -18 -22 -2 -13
-10 -23 -18 -23 -8 0 -13 7 -11 15 9 35 -5 120 -20 120 -6 0 -13 -9 -16 -21
-4 -12 -11 -18 -20 -15 -8 3 -17 6 -19 6 -2 0 -4 6 -4 14 0 8 -5 18 -11 22 -8
5 -10 -14 -7 -65 2 -50 0 -71 -8 -71 -7 0 -15 7 -18 15 -3 9 -13 15 -23 13
-11 -2 -19 6 -23 22 -6 21 -8 22 -15 8 -10 -25 -28 -10 -21 17 3 13 2 27 -4
30 -5 3 -10 0 -10 -7 -1 -19 -38 -60 -49 -54 -5 4 -12 2 -15 -3 -9 -14 37 -73
83 -106 38 -27 52 -30 124 -33 76 -3 86 -1 135 28 88 51 143 162 107 216 -19
30 -45 32 -38 4z"/>
<path d="M1471 461 c-7 -5 -37 -6 -67 -4 -51 3 -55 2 -64 -23 -6 -15 -9 -29
-6 -31 7 -7 45 30 40 39 -3 4 0 8 7 8 7 0 9 -10 7 -24 -4 -19 -1 -23 19 -23
14 0 23 5 23 14 0 11 5 8 18 -7 15 -18 22 -21 38 -13 10 6 25 8 32 6 6 -3 12
1 12 7 0 9 4 9 16 -1 13 -10 17 -10 25 2 5 8 9 20 9 27 0 6 5 12 11 12 7 0 9
-10 5 -25 -4 -14 -2 -25 4 -25 5 0 12 11 16 25 3 14 11 25 16 25 6 0 8 -11 6
-25 -3 -14 -1 -25 3 -25 5 0 9 6 9 13 0 9 2 9 8 -1 11 -17 102 -13 102 4 0 7
5 16 12 20 7 5 9 1 6 -13 -5 -18 0 -22 31 -26 50 -6 64 1 57 29 -4 14 -2 24 4
24 6 0 9 4 5 10 -12 19 -37 -2 -31 -26 6 -21 3 -24 -21 -24 -20 0 -24 3 -14 9
7 5 11 13 7 19 -3 6 0 12 6 15 7 2 -24 4 -69 5 -68 0 -83 -2 -86 -16 -4 -15
-5 -15 -6 1 -1 13 -10 17 -45 17 -26 0 -46 -5 -49 -12 -4 -10 -8 -10 -15 1 -9
12 -13 12 -26 2 -9 -8 -16 -9 -16 -3 0 14 -24 22 -39 13z"/>
<path d="M2490 401 c0 -67 -15 -72 -30 -11 -7 28 -15 50 -19 50 -12 0 -35 -49
-36 -73 0 -12 -7 -23 -17 -25 -14 -3 -15 4 -11 40 l5 43 -22 -21 c-18 -18 -20
-25 -11 -43 10 -18 9 -21 -6 -21 -9 0 -27 9 -39 21 -17 16 -26 18 -41 11 -13
-7 -28 -6 -52 4 -39 16 -49 11 -80 -41 l-20 -34 33 -21 c56 -34 115 -50 185
-50 90 0 152 22 196 71 38 42 45 62 18 52 -12 -5 -15 -2 -10 10 7 17 -22 86
-35 87 -5 0 -8 -22 -8 -49z"/>
<path d="M576 344 c-12 -31 -6 -54 13 -54 11 0 23 4 26 10 4 6 13 5 25 -3 15
-9 25 -9 37 -1 13 8 23 8 35 0 13 -8 21 -7 30 2 9 9 8 12 -5 12 -23 0 -21 17
3 30 28 15 38 6 32 -26 -3 -19 -1 -25 7 -20 6 4 11 13 11 20 0 8 6 19 14 25
11 9 12 6 8 -14 -5 -30 21 -44 49 -26 15 9 19 8 19 -1 0 -9 4 -8 11 2 9 13 11
13 16 1 4 -10 10 -5 18 15 7 16 10 32 8 37 -7 11 -43 8 -43 -4 0 -8 -4 -8 -12
-1 -17 13 -155 15 -163 2 -4 -6 -13 -5 -25 3 -16 9 -24 9 -40 0 -12 -8 -21 -9
-25 -3 -10 16 -42 12 -49 -6z"/>
<path d="M1026 336 c-8 -33 -5 -38 28 -42 19 -2 27 4 35 24 l9 27 2 -30 2 -30
16 35 16 35 6 -35 6 -35 8 28 c5 15 14 27 22 27 10 0 11 -6 4 -25 -11 -29 -3
-33 16 -7 13 16 13 16 14 0 0 -19 20 -26 20 -8 0 6 8 5 20 -2 16 -10 24 -10
40 -1 12 8 21 9 25 3 13 -22 46 -10 56 20 13 36 32 30 23 -7 -5 -18 -3 -24 5
-19 6 4 11 12 11 18 0 6 7 20 17 30 15 17 14 18 -24 18 -35 0 -42 -3 -47 -25
-4 -14 -11 -25 -16 -25 -6 0 -8 11 -4 25 4 15 2 25 -5 25 -6 0 -11 -5 -11 -10
0 -6 -8 -5 -20 2 -16 10 -24 10 -39 1 -15 -10 -21 -10 -24 0 -4 9 -6 9 -6 0
-1 -7 -8 -13 -17 -13 -8 0 -12 5 -9 11 5 7 -13 9 -54 8 -44 -2 -65 -7 -71 -18
-8 -14 -9 -14 -10 3 0 15 -3 16 -14 7 -11 -9 -15 -9 -18 1 -3 7 -8 0 -12 -16z"/>
<path d="M1477 353 c-4 -3 -7 -19 -7 -35 0 -21 5 -28 20 -28 11 0 20 5 20 10
0 6 8 5 20 -2 16 -10 24 -10 40 0 11 7 20 9 20 5 0 -5 12 -9 26 -9 18 -2 24 2
20 12 -3 7 -1 16 4 19 6 4 10 -3 10 -14 0 -24 28 -29 48 -9 9 9 12 9 12 0 0
-7 9 -12 20 -12 22 0 27 15 8 23 -10 4 -10 6 0 6 7 1 11 5 8 10 -3 5 1 12 10
15 14 5 16 1 11 -24 -4 -17 -2 -30 3 -30 6 0 10 6 10 13 0 9 2 9 9 -1 5 -8 21
-12 37 -10 23 2 29 7 27 26 -2 12 2 22 7 22 6 0 10 4 10 8 0 5 -34 9 -75 10
-47 0 -75 -3 -75 -10 0 -7 -4 -7 -12 0 -18 14 -108 14 -108 0 0 -9 -3 -9 -12
0 -19 19 -44 14 -61 -10 l-16 -23 6 23 c4 17 1 22 -14 22 -11 0 -23 -3 -26 -7z"/>
</g>
</svg>
