<?xml version="1.0" standalone="no"?>
<!DOCTYPE svg PUBLIC "-//W3C//DTD SVG 20010904//EN"
 "http://www.w3.org/TR/2001/REC-SVG-20010904/DTD/svg10.dtd">
<svg version="1.0" xmlns="http://www.w3.org/2000/svg"
 width="1754.000000pt" height="343.000000pt" viewBox="0 0 1754.000000 343.000000"
 preserveAspectRatio="xMidYMid meet">
<metadata>
Created by potrace 1.16, written by Peter Selinger 2001-2019
</metadata>
<g transform="translate(0.000000,343.000000) scale(0.100000,-0.100000)"
fill="#000000" stroke="none">
<path d="M1290 3283 c-28 -10 -51 -37 -81 -92 -37 -71 -105 -151 -127 -151 -9
0 -38 31 -63 68 -39 56 -57 72 -113 101 -59 30 -72 33 -128 29 -49 -4 -74 -12
-115 -38 -89 -56 -92 -107 -13 -225 38 -57 90 -193 90 -236 0 -16 -7 -19 -44
-19 -40 0 -49 5 -88 46 -34 36 -52 46 -85 51 -55 7 -87 -23 -102 -99 -10 -46
-9 -63 5 -104 24 -72 48 -106 93 -134 22 -14 41 -31 41 -38 0 -7 -20 -49 -44
-95 -61 -112 -103 -221 -139 -357 -26 -101 -30 -137 -34 -297 -6 -199 3 -291
43 -441 65 -251 198 -478 389 -667 204 -201 453 -335 738 -397 148 -32 446
-32 594 0 197 43 380 121 548 236 109 73 279 241 358 352 248 350 333 800 231
1214 -67 271 -190 487 -394 691 -205 205 -413 322 -705 396 -162 40 -486 44
-642 6 -19 -4 -23 -1 -23 16 0 29 -25 76 -48 93 -11 7 -26 27 -35 44 -10 19
-29 36 -48 43 -35 12 -37 12 -59 4z m67 -92 c-3 -20 -8 -45 -13 -56 -5 -14 -1
-12 15 8 30 37 45 35 37 -5 -6 -30 -5 -31 8 -13 21 28 40 8 27 -27 -5 -14 -7
-35 -4 -47 3 -12 -2 -33 -12 -47 -9 -15 -12 -23 -6 -20 17 11 13 -30 -4 -44
-12 -10 -13 -15 -3 -21 9 -6 8 -13 -6 -28 -11 -12 -14 -21 -9 -21 13 0 27 28
27 55 1 14 9 21 29 23 15 2 27 -1 27 -7 0 -15 27 -14 33 2 4 9 8 9 14 1 5 -7
39 -12 88 -12 109 0 117 -1 111 -11 -7 -11 3 -41 13 -41 9 0 6 69 -4 93 -6 15
-1 17 36 17 24 0 39 4 32 8 -6 4 -11 16 -10 27 1 12 -5 21 -18 23 -17 4 -18 2
-6 -12 12 -14 12 -19 1 -29 -10 -9 -13 -9 -17 0 -3 10 -8 9 -20 -2 -10 -11
-26 -13 -53 -9 -57 9 -191 9 -225 0 -16 -5 -27 -6 -23 -2 11 13 149 45 246 57
117 15 339 7 447 -16 182 -38 421 -140 540 -230 14 -11 38 -29 53 -40 66 -50
200 -188 258 -265 109 -145 206 -360 249 -553 26 -114 31 -392 10 -519 -96
-585 -544 -1041 -1135 -1154 -130 -24 -370 -24 -500 0 -276 53 -515 176 -717
369 -205 196 -338 433 -404 717 -32 136 -37 374 -11 525 25 144 68 278 130
400 43 86 117 205 128 205 5 0 6 0 -47 -80 -37 -56 -92 -160 -110 -208 -9 -24
-9 -25 8 -11 37 32 95 61 124 63 17 1 36 11 45 24 9 14 26 22 43 22 15 0 32 5
38 11 7 7 12 3 17 -15 5 -19 15 -27 42 -32 20 -4 38 -12 41 -19 2 -8 11 -16
18 -19 9 -3 12 0 8 10 -3 8 0 21 7 29 10 13 7 17 -23 30 -20 8 -43 12 -51 9
-9 -3 -16 -2 -16 3 0 5 -16 17 -35 26 -41 19 -69 61 -90 133 -16 54 -35 77
-75 89 -24 7 -23 5 10 -31 l35 -39 -41 38 c-22 20 -43 34 -47 31 -4 -4 -7 -3
-7 3 0 6 -11 14 -25 17 -30 8 -33 26 -4 26 11 0 30 10 41 23 l19 22 -4 -30
c-5 -28 -4 -28 8 -10 47 69 103 75 164 20 21 -19 41 -35 45 -35 3 0 6 12 6 26
0 23 -2 25 -15 14 -9 -7 -18 -10 -21 -7 -3 3 3 12 15 19 29 18 27 69 -4 187
-31 116 -50 160 -103 235 -23 32 -39 63 -36 67 9 16 37 10 62 -13 23 -21 25
-22 17 -3 -16 42 -17 62 -2 68 8 3 23 -3 33 -14 17 -19 17 -19 31 1 11 16 18
18 33 10 10 -5 22 -19 25 -31 5 -16 10 -18 20 -9 11 9 20 6 40 -14 14 -14 25
-32 25 -39 0 -8 7 -17 15 -21 9 -3 24 -25 34 -50 11 -24 24 -47 30 -50 6 -4
11 -16 11 -27 0 -10 3 -19 6 -19 4 0 41 30 82 68 69 61 161 183 177 233 11 32
28 9 22 -30z"/>
<path d="M1809 3048 c-1 -2 -2 -16 -4 -33 -1 -16 -3 -33 -4 -36 0 -3 -12 -4
-25 -2 -13 3 -26 0 -30 -5 -4 -6 2 -8 14 -5 14 4 20 1 18 -8 -2 -8 3 -13 11
-11 17 4 43 -17 35 -29 -3 -5 -10 -6 -16 -3 -6 4 -8 2 -4 -4 9 -15 -33 -42
-66 -42 -16 0 -29 -6 -29 -12 -1 -7 -2 -20 -3 -28 0 -8 -10 -15 -21 -15 -11
-1 -19 -5 -18 -10 1 -6 -37 -10 -88 -10 -65 0 -89 3 -89 13 0 9 -7 8 -25 -4
-23 -15 -25 -15 -19 0 3 9 1 16 -5 16 -6 0 -11 -4 -11 -10 0 -19 -28 -10 -33
10 -3 11 -11 20 -19 20 -10 0 -10 -2 1 -9 12 -7 12 -13 3 -24 -7 -7 -9 -16 -6
-20 7 -6 -25 -59 -43 -70 -8 -5 -11 -12 -8 -16 2 -5 -2 -14 -10 -21 -11 -9
-12 -16 -5 -25 8 -10 5 -19 -12 -35 -14 -13 -17 -20 -8 -18 9 2 15 -4 14 -13
-1 -18 12 -18 111 1 33 6 74 9 90 6 17 -2 34 -5 38 -5 4 -1 7 -7 6 -13 -1 -7
4 -25 11 -41 11 -22 11 -30 1 -40 -10 -9 -15 -8 -26 6 -13 18 -14 18 -24 -2
-16 -29 -14 -32 17 -26 15 3 32 7 38 8 7 2 20 9 30 17 16 13 17 13 11 -2 -4
-12 -2 -15 8 -11 33 12 111 8 129 -7 18 -14 19 -13 13 1 -5 16 17 59 31 59 12
0 1 -84 -12 -92 -8 -6 -8 -8 1 -8 17 0 27 20 25 51 -2 27 20 45 39 34 5 -4 6
1 3 9 -4 12 0 16 16 16 11 0 19 4 15 10 -3 5 8 16 25 25 16 8 30 20 30 25 0 5
15 8 33 7 26 -3 32 -7 30 -25 -2 -18 1 -20 20 -13 12 4 27 6 33 4 6 -2 17 3
23 11 10 12 17 13 31 4 22 -14 52 5 48 30 -2 10 8 20 27 26 17 6 34 17 38 24
5 7 17 10 28 7 14 -5 19 -2 19 13 0 11 6 23 13 25 10 4 10 6 0 6 -23 2 -13 27
22 60 29 26 39 30 55 21 23 -12 26 -26 8 -32 -19 -7 16 -38 41 -38 13 0 21 -7
21 -17 0 -10 7 -26 15 -37 8 -11 12 -30 9 -45 -6 -28 6 -44 49 -66 21 -10 73
-93 64 -102 -3 -2 -23 7 -46 21 -29 18 -47 40 -62 76 -23 54 -52 88 -42 49 4
-15 3 -20 -5 -15 -17 10 -15 -16 3 -40 18 -24 19 -34 3 -34 -7 0 -21 -11 -30
-24 -21 -29 -15 -123 8 -123 8 0 14 4 14 9 0 4 9 8 21 8 24 0 92 -44 82 -53
-3 -4 0 -15 8 -25 8 -10 -3 0 -23 23 -40 43 -50 38 -18 -10 24 -37 29 -145 6
-145 -9 0 -15 -15 -18 -42 -3 -36 0 -46 19 -62 15 -11 23 -27 21 -39 -4 -30
-25 -32 -32 -2 -4 14 -13 25 -21 25 -8 0 -15 7 -15 15 0 19 -9 19 -32 -2 -17
-15 -18 -15 -18 0 0 25 -13 21 -26 -8 -9 -19 -9 -27 1 -35 9 -8 15 -8 20 0 3
5 12 10 20 10 12 0 12 -4 0 -26 -12 -23 -11 -28 16 -55 16 -17 27 -34 24 -40
-4 -5 -1 -9 5 -9 15 0 2 -87 -19 -120 -15 -24 -35 -41 -46 -40 -3 0 -18 -11
-32 -24 -20 -19 -29 -22 -35 -13 -6 9 -16 4 -35 -18 l-26 -29 36 -31 c20 -17
39 -43 42 -58 6 -23 1 -33 -29 -63 -20 -19 -36 -29 -36 -22 -1 15 -35 42 -66
52 -18 6 -22 2 -26 -25 -4 -26 2 -38 39 -75 28 -29 43 -53 43 -69 0 -23 -2
-24 -21 -15 -11 6 -29 31 -39 56 -11 24 -24 44 -29 44 -5 0 -9 12 -8 28 1 15
-5 48 -12 74 -12 41 -16 46 -32 38 -25 -14 -29 -13 -29 8 0 9 -11 30 -24 45
-14 16 -27 34 -28 39 -5 13 -45 -6 -73 -36 -11 -12 -39 -37 -61 -57 -29 -26
-43 -47 -47 -74 -7 -40 -31 -85 -47 -85 -16 0 -71 129 -77 181 l-6 48 -49 -44
c-102 -92 -247 -174 -338 -191 -19 -4 -47 -16 -62 -28 -15 -12 -46 -34 -68
-51 -22 -16 -47 -41 -54 -55 -14 -26 -14 -26 14 -155 9 -42 -1 -75 -24 -75 -7
0 -22 -10 -34 -23 -19 -20 -20 -27 -10 -55 10 -26 9 -34 -5 -50 -9 -10 -17
-28 -17 -39 0 -25 -25 -75 -47 -95 -27 -24 -112 -19 -127 7 -6 11 -30 47 -53
81 -23 34 -45 74 -49 90 -3 16 -22 57 -40 91 -35 63 -45 128 -23 150 16 16 -6
155 -33 207 -17 33 -18 45 -9 82 17 65 14 88 -11 99 -13 6 -25 19 -27 30 -5
33 -21 45 -58 45 -20 0 -46 9 -60 20 -14 11 -29 17 -34 15 -4 -3 -15 16 -22
42 -14 47 -15 47 -22 20 -12 -46 2 -335 20 -417 97 -435 361 -778 750 -972
135 -68 328 -127 351 -107 7 6 21 6 38 -1 15 -5 48 -10 73 -10 26 0 61 -5 78
-11 25 -10 39 -9 64 2 17 8 31 18 31 22 0 5 26 6 59 2 33 -4 61 -3 64 2 8 13
77 9 103 -5 12 -6 23 -9 26 -7 3 3 25 7 49 9 57 6 203 58 300 106 193 98 390
266 512 437 246 346 321 794 202 1208 -34 121 -140 331 -219 436 -35 47 -107
126 -159 176 -90 86 -244 199 -284 208 -10 2 -29 7 -42 11 -19 6 -23 4 -18 -8
3 -10 -3 -20 -19 -29 -21 -11 -28 -10 -54 10 l-30 22 0 -21 c0 -15 -5 -20 -17
-18 -10 2 -17 10 -15 16 3 16 -25 15 -31 0 -3 -10 -17 -7 -51 11 -25 13 -46
28 -46 32 0 21 -57 88 -80 94 -13 4 -43 15 -67 26 -51 23 -91 26 -71 5 7 -7
18 -12 24 -9 11 4 30 -15 23 -21 -16 -14 -49 -14 -62 -1 -9 8 -29 18 -46 21
-16 4 -32 12 -35 20 -4 11 -63 21 -67 12z m680 -1567 c12 -8 13 -12 1 -26 -10
-12 -10 -21 -2 -39 7 -17 6 -31 -5 -57 -24 -56 -31 -64 -45 -60 -7 2 -26 3
-43 2 -24 -1 -33 5 -42 26 -18 38 -16 53 7 53 11 0 20 4 20 8 0 9 81 100 90
101 3 0 11 -3 19 -8z m437 -86 c6 -8 17 -15 23 -15 7 0 9 -5 5 -11 -3 -6 6
-24 22 -40 26 -27 26 -29 7 -29 -11 0 -26 7 -33 15 -15 18 -56 16 -52 -3 3
-17 -27 -27 -40 -14 -8 8 -17 8 -32 0 -18 -10 -19 -9 -8 4 21 25 4 45 -44 53
-54 8 -61 33 -7 26 7 -1 17 8 24 20 10 19 16 21 68 15 31 -4 61 -13 67 -21z
m-14 -196 c5 -3 9 -22 10 -43 1 -25 8 -42 20 -49 10 -7 18 -19 18 -27 0 -8 7
-28 15 -44 27 -51 5 -115 -75 -225 -40 -54 -83 -86 -107 -77 -7 3 -15 1 -18
-4 -9 -15 -44 7 -44 28 -3 60 -4 62 -23 45 -16 -14 -18 -14 -18 -1 0 9 -7 21
-15 28 -19 16 -116 -3 -135 -26 -7 -7 -23 -14 -37 -14 -13 0 -38 -7 -55 -16
-28 -14 -32 -14 -46 0 -12 12 -13 16 -3 16 11 0 12 15 7 69 -10 103 -5 114 72
153 39 19 71 43 77 56 5 12 18 25 27 28 10 3 18 9 18 14 0 20 32 40 55 34 17
-4 25 -1 29 14 10 29 31 44 76 52 l39 7 -15 -29 c-9 -17 -14 -31 -12 -33 2 -1
17 -10 35 -19 32 -16 32 -16 48 13 8 17 15 41 15 55 0 13 3 32 7 42 6 15 8 13
16 -12 6 -16 14 -32 19 -35z m-1588 -127 c-19 -98 -31 -136 -46 -146 -31 -19
-51 14 -52 86 -1 59 1 64 27 76 15 7 33 22 40 33 11 18 13 18 25 2 7 -11 10
-30 6 -51z"/>
<path d="M1017 2217 c3 -5 -3 -6 -15 -3 -17 6 -19 3 -15 -16 l6 -23 -24 20
c-15 13 -19 14 -11 4 10 -14 10 -20 -3 -32 -19 -19 -19 -41 -1 -57 8 -6 16
-21 18 -33 3 -25 17 -29 28 -7 12 24 28 100 20 95 -5 -3 -11 2 -14 11 -9 24
-8 26 14 19 11 -4 20 -2 20 4 0 6 7 11 16 11 8 0 12 -5 9 -10 -4 -6 -11 -40
-16 -76 l-9 -65 37 -39 c22 -24 45 -40 59 -40 13 0 26 -4 29 -10 11 -18 33
-10 55 20 34 47 33 67 -3 91 l-32 21 28 -25 c23 -19 26 -25 14 -30 -9 -3 -21
1 -27 8 -7 8 -16 12 -21 10 -14 -9 -30 33 -23 61 5 19 9 22 15 12 5 -7 9 -8 9
-3 0 18 -17 36 -31 33 -8 -2 -22 -16 -32 -32 -24 -37 -29 -30 -18 26 l8 46
-48 9 c-31 7 -46 7 -42 0z"/>
<path d="M1370 1856 c0 -14 4 -27 10 -31 5 -3 6 -13 3 -22 -4 -11 -3 -14 6 -9
8 5 11 2 9 -9 -4 -21 30 -29 49 -13 10 8 21 3 44 -20 l32 -31 -24 -29 c-39
-48 -138 -89 -224 -94 -45 -3 -52 -11 -36 -37 6 -10 24 -12 65 -9 47 4 56 2
51 -10 -4 -12 2 -13 32 -7 101 18 283 120 280 156 -1 10 -4 19 -8 19 -3 0 -11
11 -17 25 -9 20 -19 25 -50 25 -48 0 -99 17 -106 35 -3 8 -13 11 -24 8 -20 -5
-62 37 -62 63 0 8 -7 14 -15 14 -9 0 -15 -9 -15 -24z"/>
<path d="M15540 3080 c-338 -24 -642 -98 -888 -216 -100 -48 -115 -59 -128
-90 -13 -30 -14 -144 -11 -812 3 -682 5 -785 20 -844 44 -179 130 -335 247
-448 133 -130 340 -248 727 -416 154 -67 208 -86 244 -86 53 0 270 88 546 223
416 203 596 398 676 732 22 91 22 103 21 865 0 749 -1 773 -20 800 -44 62
-359 186 -600 236 -246 51 -582 74 -834 56z m-226 -396 c26 -80 54 -148 62
-151 31 -12 11 -23 -41 -23 -30 0 -55 5 -55 10 0 6 7 10 15 10 18 0 19 16 4
59 -10 30 -13 31 -65 31 l-53 0 -7 -37 c-5 -28 -3 -39 10 -48 26 -19 19 -25
-29 -25 -47 0 -54 6 -31 24 8 6 33 70 56 141 43 133 54 155 74 155 6 0 33 -66
60 -146z m212 41 c60 -158 50 -155 98 -25 l42 115 47 3 c28 2 47 -1 47 -7 0
-6 -6 -11 -14 -11 -20 0 -26 -32 -26 -135 0 -103 6 -135 26 -135 8 0 14 -4 14
-10 0 -6 -27 -10 -60 -10 -58 0 -80 12 -40 23 19 5 20 13 19 129 l0 123 -51
-137 c-28 -76 -54 -138 -57 -138 -4 0 -24 48 -46 108 -67 185 -64 183 -65 54
0 -100 2 -114 20 -129 31 -26 25 -33 -30 -33 -54 0 -62 8 -30 28 18 11 20 23
20 133 0 112 -1 121 -20 126 -38 10 -20 24 26 21 l47 -3 33 -90z m379 85 c-3
-5 -13 -10 -21 -10 -11 0 -14 -24 -14 -131 0 -122 1 -131 20 -136 41 -11 18
-23 -45 -23 -63 0 -86 12 -45 23 19 5 20 14 20 136 0 107 -3 131 -14 131 -8 0
-18 5 -21 10 -4 6 18 10 60 10 42 0 64 -4 60 -10z m285 -26 c15 -46 5 -55 -23
-21 -22 27 -70 51 -81 40 -8 -8 -8 -237 0 -257 3 -9 12 -16 20 -16 8 0 14 -4
14 -10 0 -6 -27 -10 -60 -10 -58 0 -80 12 -40 23 19 5 20 14 20 134 0 71 -3
132 -6 136 -11 11 -58 -14 -81 -41 -27 -34 -38 -24 -23 22 l12 36 118 0 118 0
12 -36z m120 26 c0 -5 -7 -10 -15 -10 -20 0 -20 -1 18 -69 l33 -60 27 55 c31
63 33 74 12 74 -8 0 -15 5 -15 10 0 6 20 10 45 10 44 0 60 -12 30 -23 -8 -4
-30 -38 -50 -76 -28 -56 -35 -82 -35 -127 0 -47 3 -57 20 -61 38 -10 9 -23
-51 -23 -58 0 -79 12 -39 23 17 4 20 14 20 56 0 39 -9 69 -36 124 -20 39 -46
80 -57 89 -21 17 -21 18 36 18 31 0 57 -4 57 -10z m315 -591 c50 -5 122 -14
162 -20 l71 -11 4 -387 c5 -538 -5 -634 -82 -796 -52 -107 -117 -185 -224
-266 -91 -69 -331 -203 -347 -193 -12 7 -11 142 2 229 22 152 22 199 4 236
-27 52 -56 67 -48 24 8 -39 -16 -120 -49 -164 -49 -67 -163 -121 -258 -121
-88 0 -188 44 -226 102 l-19 28 -7 -25 c-16 -62 32 -145 108 -187 108 -58 235
-55 341 8 31 19 63 32 70 30 42 -17 -30 -88 -114 -112 -73 -21 -180 -15 -246
14 -57 25 -58 29 42 -113 39 -55 67 -102 63 -105 -4 -4 -25 -14 -48 -24 l-40
-17 -145 61 c-211 90 -472 220 -563 280 -273 179 -376 398 -376 799 l0 143 51
64 c280 345 918 557 1614 538 94 -3 211 -10 260 -15z"/>
<path d="M11275 2466 c-117 -52 -141 -231 -44 -325 21 -21 39 -42 39 -46 0 -4
-11 -18 -25 -31 -38 -35 -36 -105 4 -145 63 -63 162 -20 247 107 l39 59 0 147
0 147 -35 37 c-19 20 -49 43 -67 50 -41 18 -119 17 -158 0z m185 -54 c44 -33
63 -77 64 -151 0 -57 -5 -79 -32 -134 -32 -64 -118 -157 -146 -157 -7 0 -19
11 -26 25 -13 24 -11 27 29 61 40 35 61 66 75 111 6 20 4 21 -26 17 -18 -3
-45 -1 -60 5 -60 23 -87 125 -52 192 29 58 117 73 174 31z"/>
<path d="M4238 2454 c-33 -17 -43 -51 -33 -102 4 -20 7 -46 7 -57 0 -37 -371
-797 -407 -835 -18 -19 -37 -47 -40 -61 -8 -31 15 -83 40 -93 30 -11 363 -7
389 5 38 18 50 64 30 119 -16 44 -16 47 5 88 l21 42 179 0 c198 0 200 0 221
-64 8 -25 8 -41 1 -55 -6 -11 -11 -38 -11 -60 0 -31 6 -44 26 -60 25 -20 38
-21 423 -20 424 0 420 0 440 51 11 29 6 53 -20 105 -15 29 -19 59 -19 133 0
52 3 112 7 133 6 38 7 36 114 -165 59 -112 120 -214 135 -227 22 -18 35 -22
63 -17 20 3 44 15 53 26 10 12 67 111 129 221 61 109 115 202 120 205 5 3 9
-58 9 -143 0 -131 -2 -151 -20 -178 -28 -42 -26 -90 5 -120 24 -25 27 -25 198
-25 161 0 176 2 201 21 20 16 26 29 26 61 0 25 -7 49 -17 61 -16 17 -18 55
-21 429 -3 397 -2 411 18 442 39 64 19 136 -43 151 -13 4 -110 5 -216 3 l-193
-3 -24 -29 c-22 -25 -24 -34 -19 -80 7 -52 6 -55 -92 -234 -54 -100 -102 -180
-107 -179 -6 2 -52 82 -103 178 -93 173 -93 174 -87 230 5 50 3 59 -19 85
l-25 29 -217 0 -217 0 -24 -28 c-29 -34 -31 -72 -4 -112 19 -29 20 -48 20
-442 0 -288 -3 -414 -11 -419 -33 -20 -60 24 -259 428 -182 369 -201 412 -191
434 14 31 14 79 1 104 -17 32 -67 40 -244 40 -132 -1 -177 -4 -198 -16z m422
-53 c0 -11 -9 -23 -20 -26 -13 -4 -20 -15 -20 -31 0 -13 99 -222 220 -463 201
-403 222 -440 250 -450 46 -16 37 -46 -13 -45 -20 0 -107 1 -192 2 -127 2
-155 5 -155 16 0 8 9 17 19 21 37 11 34 40 -14 134 l-45 91 -228 0 -227 0 -38
-83 c-45 -98 -47 -124 -11 -137 16 -7 24 -16 22 -27 -3 -16 -19 -18 -178 -15
-174 2 -208 10 -156 34 15 6 35 25 45 42 42 69 411 855 411 874 0 12 -9 27
-20 34 -11 7 -20 21 -20 30 0 17 15 18 185 18 176 0 185 -1 185 -19z m940 3
c0 -9 -10 -24 -22 -33 l-22 -18 28 -54 c49 -94 259 -494 261 -497 5 -6 295
537 295 552 0 8 -9 20 -20 26 -11 6 -20 17 -20 25 0 13 31 15 199 15 140 0
202 -3 207 -12 6 -10 -15 -33 -38 -40 -5 -2 -9 -200 -8 -463 l0 -460 28 -22
c17 -14 23 -25 17 -31 -16 -14 -335 -2 -335 13 0 6 11 17 25 23 l25 12 0 317
c0 312 -1 317 -19 288 -10 -16 -96 -171 -192 -342 -96 -172 -178 -312 -182
-310 -5 1 -90 156 -190 344 -100 188 -182 341 -183 340 0 -1 1 -145 4 -320 l5
-318 24 -10 c34 -13 27 -44 -10 -43 -15 0 -85 1 -157 2 -101 2 -130 5 -130 15
0 8 11 19 25 25 l25 12 0 460 0 460 -25 16 c-14 9 -25 23 -25 30 0 11 37 14
205 14 181 0 205 -2 205 -16z"/>
<path d="M4388 1972 l-75 -167 150 -3 c82 -1 151 -1 154 1 3 4 -139 323 -149
332 -2 3 -38 -71 -80 -163z"/>
<path d="M6634 2460 c-52 -21 -68 -84 -34 -135 19 -29 20 -48 20 -440 0 -392
-1 -411 -20 -440 -28 -42 -26 -90 5 -120 24 -25 27 -25 198 -25 161 0 176 2
201 21 20 16 26 29 26 61 0 25 -7 49 -17 61 -16 17 -18 55 -21 424 -3 391 -2
407 18 445 11 21 20 52 20 67 0 80 -28 91 -222 90 -84 0 -163 -4 -174 -9z
m373 -57 c3 -7 -7 -18 -21 -24 l-26 -12 0 -461 0 -460 28 -22 c17 -15 23 -26
17 -32 -16 -14 -335 -2 -335 13 0 6 11 17 25 23 l25 12 0 460 0 460 -25 16
c-14 9 -25 23 -25 30 0 12 29 14 167 12 121 -2 167 -6 170 -15z"/>
<path d="M7135 2460 c-51 -20 -62 -79 -26 -146 20 -37 21 -52 21 -429 0 -362
-1 -393 -19 -428 -26 -52 -31 -76 -20 -105 18 -48 32 -51 212 -52 165 0 168 0
192 25 31 30 33 75 5 120 -19 30 -20 47 -18 177 l3 143 113 -211 c62 -117 119
-217 126 -223 28 -23 79 -24 108 -2 14 12 79 116 144 233 135 241 131 240 133
49 1 -103 -2 -119 -25 -168 -21 -46 -24 -59 -15 -85 19 -55 30 -57 224 -58
l178 0 26 26 c21 21 25 32 20 66 -3 22 -12 47 -21 57 -14 15 -16 68 -16 432 0
396 1 415 20 444 27 40 25 78 -4 112 l-24 28 -198 3 c-261 4 -277 -2 -272
-115 2 -56 -2 -64 -94 -233 -53 -96 -100 -176 -105 -177 -5 -2 -51 77 -103
174 -88 167 -94 181 -92 232 5 116 -7 121 -260 120 -106 0 -202 -4 -213 -9z
m451 -52 c4 -7 -2 -18 -14 -26 -12 -8 -22 -22 -22 -31 0 -10 29 -71 63 -137
35 -65 97 -182 137 -259 40 -77 75 -144 77 -148 6 -10 302 530 303 550 0 7 -9
17 -20 23 -11 6 -20 17 -20 25 0 13 31 15 200 15 184 0 200 -1 200 -18 0 -9
-10 -22 -22 -27 l-23 -10 -3 -445 c-1 -245 0 -455 3 -466 2 -12 14 -24 26 -27
32 -8 21 -42 -14 -41 -15 0 -88 1 -162 2 -78 1 -135 6 -135 12 0 5 11 20 25
34 l25 25 0 313 0 313 -20 -35 c-11 -19 -98 -174 -194 -345 -95 -170 -177
-310 -182 -312 -5 -1 -90 150 -189 337 l-180 338 -3 -306 -3 -307 26 -20 c14
-12 25 -29 25 -39 0 -16 -6 -18 -46 -12 -26 3 -96 6 -155 6 -63 0 -109 4 -109
10 0 5 11 20 25 34 l25 25 0 441 c0 443 -3 480 -35 480 -8 0 -15 9 -15 20 0
19 7 20 199 20 143 0 202 -3 207 -12z"/>
<path d="M8595 2461 c-50 -21 -63 -73 -33 -127 21 -37 22 -54 28 -394 5 -337
7 -358 28 -411 44 -112 137 -184 287 -225 90 -25 366 -31 474 -10 217 41 333
151 361 342 5 38 10 202 10 364 0 277 1 297 20 325 27 40 25 78 -4 112 l-24
28 -172 0 -172 0 -24 -28 c-29 -34 -30 -61 -4 -110 19 -34 20 -56 20 -327 0
-336 -2 -347 -71 -374 -101 -41 -263 -29 -322 24 l-32 28 -3 307 c-3 294 -2
307 17 339 28 44 26 79 -3 113 l-24 28 -169 2 c-92 1 -177 -1 -188 -6z m375
-59 c0 -9 -10 -22 -22 -27 l-23 -10 -3 -305 c-3 -346 2 -391 51 -438 60 -59
194 -84 323 -63 94 16 143 45 172 101 21 43 22 52 22 376 l0 331 -25 11 c-14
6 -25 18 -25 27 0 13 23 15 160 15 146 0 160 -2 160 -18 0 -9 -10 -22 -22 -27
l-23 -10 -5 -370 -5 -370 -26 -55 c-68 -144 -202 -200 -479 -200 -274 0 -421
59 -481 192 -24 52 -24 60 -29 423 -3 204 -9 376 -13 383 -5 6 -14 12 -22 12
-17 0 -28 17 -20 30 4 6 72 10 171 10 150 0 164 -2 164 -18z"/>
<path d="M9874 2460 c-52 -21 -68 -84 -34 -135 19 -29 20 -48 20 -440 0 -392
-1 -411 -20 -440 -28 -42 -26 -90 5 -120 24 -25 27 -25 192 -25 180 1 194 4
212 52 11 29 6 53 -20 105 -16 32 -19 61 -19 203 0 158 5 214 19 208 3 -2 99
-99 214 -217 205 -213 207 -215 207 -258 0 -33 6 -50 25 -68 24 -25 26 -25
202 -25 200 0 217 5 229 65 5 26 1 44 -15 70 -20 35 -21 47 -21 446 0 390 1
411 20 446 26 49 25 76 -4 110 l-24 28 -172 0 -172 0 -24 -28 c-29 -34 -30
-61 -4 -110 18 -33 20 -56 20 -227 0 -104 -2 -190 -5 -190 -5 0 -238 239 -338
347 -60 65 -67 76 -67 113 0 54 -12 75 -51 89 -38 13 -344 14 -375 1z m396
-59 c0 -10 -7 -21 -15 -25 -8 -3 -15 -13 -15 -22 0 -9 67 -85 148 -168 81 -83
209 -216 285 -295 l137 -144 0 310 0 310 -25 11 c-14 6 -25 18 -25 27 0 13 23
15 160 15 146 0 160 -2 160 -18 0 -9 -10 -22 -22 -27 l-23 -10 -3 -463 -2
-462 26 -10 c35 -14 29 -45 -9 -44 -15 0 -90 1 -167 2 -146 2 -160 7 -118 42
l22 17 -162 169 c-89 93 -227 237 -307 319 l-146 150 5 -64 c3 -35 6 -180 6
-323 l0 -258 26 -10 c35 -14 29 -45 -9 -44 -15 0 -85 1 -157 2 -101 2 -130 5
-130 15 0 8 11 19 25 25 l25 12 0 460 0 460 -25 16 c-14 9 -25 23 -25 30 0 11
33 14 180 14 170 0 180 -1 180 -19z"/>
<path d="M3804 1176 c-73 -32 -71 -194 2 -224 22 -9 1193 -12 4997 -10 l4969
3 24 28 c20 23 24 39 24 92 0 53 -4 69 -24 92 l-24 28 -4969 2 c-4166 2 -4973
0 -4999 -11z m9986 -91 l0 -55 -4970 0 -4970 0 0 55 0 55 4970 0 4970 0 0 -55z"/>
<path d="M4400 852 c-74 -1 -114 -7 -136 -19 -29 -15 -33 -15 -55 0 -35 25
-129 23 -163 -4 l-26 -20 -26 20 c-20 16 -41 21 -84 21 -53 0 -61 -3 -84 -31
-14 -17 -26 -36 -26 -43 0 -7 -20 -54 -45 -105 -69 -142 -59 -197 39 -208 34
-4 54 0 81 15 l35 21 36 -21 c32 -19 44 -20 142 -13 59 4 132 6 162 5 30 -2
103 -2 163 -2 180 2 190 1 244 -1 75 -3 98 21 99 106 1 83 2 87 18 87 24 0 40
-30 47 -92 10 -82 31 -103 104 -103 72 0 94 21 104 101 6 53 44 134 63 134 3
0 8 -43 10 -95 4 -131 13 -139 148 -143 87 -3 105 -1 135 17 l35 20 35 -21
c29 -17 44 -19 83 -13 26 4 62 7 80 6 17 -1 55 -2 82 -2 28 0 70 0 95 0 69 -1
411 -1 448 0 17 1 78 -1 135 -5 92 -5 106 -4 137 15 35 20 35 20 68 1 46 -29
198 -29 244 0 33 19 33 19 66 0 30 -18 47 -19 153 -15 65 3 136 5 157 5 20 0
60 0 87 -1 112 0 216 -1 338 0 26 0 68 -1 94 -2 32 -1 52 3 66 16 19 18 21 17
58 -2 55 -30 204 -30 252 -1 32 20 32 20 65 0 29 -18 50 -20 205 -20 136 0
179 3 202 15 27 14 33 14 62 -1 29 -15 42 -16 106 -5 57 10 84 10 128 0 44
-10 65 -10 104 0 39 10 57 10 86 1 23 -8 60 -10 102 -5 37 3 85 6 107 5 56 -3
220 -4 280 -2 28 1 173 -1 323 -4 l273 -5 31 31 31 31 21 -20 c37 -35 70 -40
235 -38 129 3 164 6 184 20 25 16 28 16 61 -4 32 -19 46 -20 143 -15 60 4 126
6 148 5 22 0 61 0 88 0 66 1 92 1 350 -5 261 -5 293 0 349 56 41 40 42 40 52
-2 13 -55 118 -76 166 -33 17 15 21 15 56 -4 48 -26 194 -30 234 -6 14 8 31
17 38 21 7 3 22 -2 33 -12 18 -17 36 -19 143 -17 125 2 185 2 259 2 23 0 62 0
87 0 25 0 81 0 125 0 44 -1 98 0 120 1 22 2 59 -1 82 -5 34 -6 49 -3 78 14 34
20 37 20 62 4 21 -14 54 -18 181 -20 138 -2 159 0 194 18 68 35 79 66 73 199
-6 136 -10 142 -109 167 -56 13 -78 15 -120 6 -29 -6 -81 -9 -117 -6 -52 4
-71 2 -92 -12 -25 -16 -29 -16 -52 -1 -27 18 -116 22 -145 6 -13 -7 -38 -5
-84 7 -63 17 -69 17 -132 0 -52 -13 -70 -14 -87 -5 -16 9 -97 11 -282 10 -245
-2 -261 -3 -288 -22 l-28 -21 -26 20 c-31 25 -108 28 -141 6 -19 -14 -24 -14
-51 0 -17 8 -53 15 -81 15 -41 0 -56 -5 -75 -25 -14 -13 -25 -33 -25 -45 0
-27 -14 -25 -34 5 -9 14 -35 34 -58 46 -40 21 -53 21 -523 22 -444 0 -483 -1
-508 -18 -25 -16 -29 -16 -52 -1 -35 23 -225 23 -260 0 -22 -14 -26 -14 -47 0
-22 16 -101 22 -133 10 -29 -11 -45 -60 -45 -135 0 -69 -1 -71 -22 -65 -13 3
-44 6 -70 6 l-48 0 0 74 c0 102 -14 118 -108 126 -39 4 -133 3 -209 -1 -161
-10 -129 -10 -275 -3 -70 4 -129 2 -147 -4 -22 -8 -43 -6 -83 5 -45 14 -63 14
-118 4 -36 -7 -69 -12 -75 -12 -5 1 -41 4 -78 7 -55 5 -75 3 -101 -11 -31 -17
-35 -17 -57 -2 -34 24 -130 23 -160 -2 -21 -17 -25 -30 -29 -108 -4 -72 -8
-87 -20 -84 -8 3 -41 7 -72 9 l-58 4 0 74 c0 66 -3 78 -25 99 -32 33 -110 35
-149 4 l-26 -20 -26 20 c-41 32 -129 29 -165 -5 l-27 -25 -25 25 c-21 21 -36
26 -74 26 -28 0 -58 -7 -71 -15 -19 -14 -25 -14 -53 1 -25 12 -47 15 -93 10
-88 -9 -86 -9 -147 5 -48 11 -66 10 -120 -3 -47 -12 -70 -13 -89 -5 -15 6
-125 10 -284 9 -246 -1 -260 -2 -281 -22 -27 -25 -37 -25 -60 0 -23 25 -104
28 -140 4 -22 -15 -27 -15 -48 -1 -24 15 -111 18 -742 20 -283 1 -312 -1 -338
-17 -25 -17 -29 -17 -53 -2 -21 15 -44 16 -147 12 -140 -6 -142 -6 -262 -1
-140 6 -479 10 -595 7z m410 -73 c0 -29 -1 -30 -47 -27 l-47 3 3 -85 c1 -47 4
-93 7 -102 5 -15 -1 -18 -38 -18 l-43 0 3 106 3 107 -45 -5 c-46 -6 -46 -5
-46 26 l0 31 125 -3 125 -3 0 -30z m1050 2 c0 -28 -1 -28 -44 -24 -24 3 -45 1
-48 -3 -2 -5 -2 -53 2 -107 l5 -97 -40 0 -40 0 3 106 3 107 -45 -5 c-46 -6
-46 -5 -46 26 l0 31 125 -3 125 -3 0 -28z m260 -2 l0 -30 -85 7 -85 7 0 -31 0
-30 61 5 60 6 -3 -34 c-2 -19 -7 -33 -13 -33 -5 1 -31 5 -57 8 l-48 7 0 -31 0
-32 85 3 85 4 0 -34 c0 -26 -3 -32 -16 -27 -9 3 -64 6 -122 6 l-107 0 2 127 2
128 113 5 c62 3 116 4 121 2 4 -2 7 -17 7 -33z m1145 -1 c-6 -23 -10 -25 -52
-20 l-45 5 4 -107 3 -106 -35 0 -35 0 0 102 0 103 -47 -1 c-46 0 -48 1 -48 28
l0 27 123 3 c67 2 126 0 130 -3 4 -3 5 -17 2 -31z m2625 1 l0 -30 -85 7 -85 7
0 -31 0 -30 61 5 60 6 -3 -34 c-2 -19 -7 -33 -13 -33 -5 1 -31 5 -57 8 l-48 7
0 -31 0 -32 85 3 85 4 0 -34 c0 -26 -3 -32 -16 -27 -9 3 -64 6 -122 6 l-107 0
2 127 2 128 113 5 c62 3 116 4 121 2 4 -2 7 -17 7 -33z m1345 -1 c-6 -23 -10
-25 -52 -20 l-45 5 4 -107 3 -106 -35 0 -35 0 0 102 0 103 -47 -1 c-46 0 -48
1 -48 28 l0 27 123 3 c67 2 126 0 130 -3 4 -3 5 -17 2 -31z m255 6 l0 -35 -85
7 -85 7 0 -31 0 -32 60 7 60 6 0 -33 0 -33 -60 7 -60 7 0 -31 0 -31 88 2 87 2
0 -27 c0 -14 -3 -26 -7 -26 -5 0 -59 0 -120 0 l-113 0 0 130 0 129 115 4 c63
1 116 4 118 5 1 1 2 -14 2 -34z m1250 -3 c0 -28 -1 -28 -44 -24 -24 3 -45 1
-48 -3 -2 -5 -2 -53 2 -107 l5 -97 -40 0 -40 0 3 106 3 107 -45 -5 c-46 -6
-46 -5 -46 26 l0 31 125 -3 125 -3 0 -28z m-8753 11 c-1 -20 78 -197 102 -224
13 -17 11 -18 -38 -18 -36 0 -51 4 -50 13 5 43 0 47 -60 47 -61 0 -77 -12 -65
-45 5 -12 -3 -15 -38 -15 l-43 0 52 108 c29 59 52 114 52 122 -2 28 1 30 45
30 37 0 45 -3 43 -18z m223 -4 c1 -13 13 -47 29 -76 l27 -54 32 60 c18 34 31
67 30 74 -2 9 11 13 45 13 l48 0 2 -128 2 -127 -40 0 -40 0 3 77 3 78 -44 -79
-45 -79 -41 74 -42 74 3 -73 3 -72 -35 0 -35 0 0 130 0 130 48 0 c42 0 47 -2
47 -22z m322 -93 c-3 -80 0 -120 8 -130 11 -13 6 -15 -31 -15 l-44 0 0 130 0
130 35 0 35 0 -3 -115z m385 102 c-3 -7 5 -30 17 -50 l22 -36 20 32 c10 18 19
39 19 47 0 16 64 26 94 15 14 -6 14 -8 0 -18 -8 -7 -35 -38 -58 -71 -41 -55
-43 -61 -39 -112 l5 -54 -41 0 -41 0 3 55 c4 53 2 59 -47 126 -28 38 -51 72
-51 74 0 3 23 5 51 5 38 0 50 -3 46 -13z m356 -120 l2 -127 -40 0 -40 0 2 127
c1 71 3 129 3 131 0 2 16 2 36 0 l35 -3 2 -128z m130 118 c-1 -6 28 -42 63
-80 l64 -70 -3 65 c-2 36 -5 72 -7 80 -4 10 4 16 23 18 40 5 62 -5 49 -21 -6
-7 -8 -53 -3 -124 l6 -113 -42 0 c-28 0 -43 5 -43 13 -1 6 -30 44 -65 82 l-64
70 -1 -70 c0 -42 5 -76 12 -83 9 -9 2 -12 -32 -12 l-45 0 2 127 c1 71 3 129 3
131 0 2 19 2 43 0 23 -2 41 -8 40 -13z m966 0 c51 -26 56 -83 12 -124 l-29
-27 26 -35 c15 -19 30 -35 34 -37 23 -10 2 -22 -37 -22 -28 0 -45 4 -45 12 0
7 -12 29 -26 50 -21 30 -33 38 -57 38 -30 0 -30 0 -25 -50 l5 -50 -36 0 -36 0
0 130 0 130 93 0 c62 0 102 -5 121 -15z m164 0 c-1 -6 28 -42 63 -80 l65 -70
-4 65 c-2 36 -6 72 -8 80 -3 11 5 15 34 15 20 0 37 -3 37 -7 0 -5 0 -62 0
-128 l0 -120 -40 0 c-25 0 -40 5 -40 13 -1 6 -30 44 -65 82 l-64 70 -1 -70 c0
-42 5 -76 12 -83 9 -9 2 -12 -32 -12 l-45 0 2 127 c1 71 3 129 3 131 0 2 19 2
43 0 23 -2 41 -8 40 -13z m403 -2 c-3 -11 20 -66 53 -130 l58 -113 -49 0 c-33
0 -48 4 -47 13 5 43 0 47 -60 47 -61 0 -77 -12 -65 -45 5 -12 -3 -15 -38 -15
l-43 0 52 108 c29 59 52 114 52 122 -2 28 1 30 47 30 39 0 45 -3 40 -17z m427
10 c4 -3 2 -12 -4 -19 -7 -8 -10 -54 -7 -124 l3 -110 -35 0 -35 0 0 130 0 130
36 0 c20 0 39 -3 42 -7z m254 -13 c81 -49 82 -184 2 -225 -34 -18 -125 -19
-158 -2 -61 31 -86 116 -53 177 36 66 141 92 209 50z m183 3 c0 -9 27 -45 61
-80 l61 -63 -4 80 -3 80 35 0 35 0 0 -130 0 -130 -37 0 c-24 0 -38 5 -38 13 0
7 -30 42 -66 77 l-66 65 4 -77 3 -78 -35 0 -35 0 0 130 0 130 43 0 c32 0 42
-4 42 -17z m407 -1 c-1 -20 78 -197 102 -224 13 -17 11 -18 -38 -18 -36 0 -51
4 -50 13 5 43 0 47 -60 47 -61 0 -77 -12 -65 -45 5 -12 -3 -15 -38 -15 l-43 0
52 108 c29 59 52 114 52 122 -2 28 1 30 45 30 37 0 45 -3 43 -18z m208 9 c3
-5 1 -12 -5 -16 -6 -3 -10 -46 -10 -97 l0 -90 85 3 85 4 0 -34 c0 -26 -3 -32
-16 -27 -9 3 -61 6 -117 6 l-102 0 0 130 0 130 37 0 c20 0 39 -4 43 -9z m365
-13 c1 -13 13 -47 29 -76 l27 -54 32 60 c18 34 31 67 30 74 -2 9 10 13 45 13
26 0 47 -3 48 -8 0 -4 -2 -44 -6 -90 -4 -49 -3 -98 3 -120 l10 -37 -41 0 -42
0 3 77 3 78 -44 -79 -45 -79 -41 74 -42 74 3 -73 3 -72 -35 0 -35 0 0 130 0
130 48 0 c42 0 47 -2 47 -22z m467 2 c81 -49 82 -184 2 -225 -34 -18 -125 -19
-158 -2 -61 31 -86 116 -53 177 36 66 141 92 209 50z m285 10 c56 -16 78 -51
78 -122 0 -55 -3 -63 -34 -94 l-34 -34 -98 0 -99 0 0 130 0 130 75 0 c41 0 92
-5 112 -10z m473 1 c3 -5 1 -12 -5 -16 -6 -3 -10 -46 -10 -97 l0 -90 85 3 85
4 0 -34 c0 -26 -3 -32 -16 -27 -9 3 -61 6 -117 6 l-102 0 0 130 0 130 37 0
c20 0 39 -4 43 -9z m337 -84 c-4 -106 2 -117 63 -119 55 -2 68 20 62 107 -2
39 -6 77 -8 85 -3 12 5 15 36 15 31 0 39 -4 36 -15 -2 -8 -6 -57 -9 -108 -6
-116 -20 -132 -118 -132 -83 0 -112 14 -124 59 -7 29 -14 156 -11 194 1 4 18
7 39 7 l37 0 -3 -93z m311 78 c-1 -6 28 -42 63 -80 l65 -70 -4 65 c-2 36 -6
72 -8 80 -3 11 5 15 34 15 l38 0 2 -128 2 -127 -42 0 c-28 0 -43 5 -43 13 -1
6 -30 44 -65 82 l-64 70 -1 -70 c0 -42 5 -76 12 -83 9 -9 2 -12 -33 -12 l-44
0 2 127 c1 71 3 129 3 131 0 2 19 2 43 0 23 -2 41 -8 40 -13z m310 -118 l2
-127 -40 0 -40 0 2 127 c1 71 3 129 3 131 0 2 16 2 35 0 l36 -3 2 -128z m760
122 c94 -26 106 -188 17 -234 -20 -10 -58 -15 -122 -15 l-93 0 2 127 c1 71 3
129 3 131 1 7 161 0 193 -9z m287 -6 c0 -9 27 -45 61 -80 l61 -63 -4 80 -3 80
35 0 35 0 0 -130 0 -130 -37 0 c-24 0 -38 5 -38 13 0 7 -30 42 -66 77 l-66 65
4 -77 3 -78 -35 0 -35 0 0 130 0 130 43 0 c32 0 42 -4 42 -17z m402 -5 c-1 -9
21 -63 50 -120 29 -57 54 -106 56 -110 2 -5 -18 -8 -45 -8 -47 0 -49 1 -48 28
0 26 -1 27 -60 27 -59 0 -60 -1 -60 -27 1 -26 -2 -28 -43 -28 -24 0 -42 3 -40
8 59 114 106 225 101 237 -5 14 2 16 43 13 40 -2 48 -6 46 -20z m423 -108 l0
-130 -40 0 -40 0 2 127 c1 71 3 129 3 131 0 1 17 2 38 2 l37 0 0 -130z m250
114 c54 -25 71 -64 67 -146 -1 -15 -17 -42 -36 -62 -31 -34 -37 -36 -95 -36
-73 0 -114 18 -136 60 -20 38 -19 110 1 139 41 57 130 78 199 45z m188 1 c-1
-6 28 -42 63 -80 l65 -70 -4 65 c-2 36 -6 72 -8 80 -3 11 5 15 34 15 l38 0 2
-128 2 -127 -42 0 c-28 0 -43 5 -43 13 -1 6 -30 44 -65 82 l-64 70 -1 -70 c0
-42 5 -76 12 -83 9 -9 2 -12 -33 -12 l-44 0 2 127 c1 71 3 129 3 131 0 2 19 2
43 0 23 -2 41 -8 40 -13z m421 3 c22 -6 42 -13 44 -14 7 -5 -29 -64 -38 -64
-6 0 -10 4 -10 8 0 28 -99 42 -119 18 -16 -19 14 -36 64 -36 74 0 116 -44 101
-105 -12 -49 -108 -70 -197 -43 -43 12 -44 14 -29 53 l10 26 29 -22 c36 -26
95 -29 119 -6 22 23 8 33 -64 42 -68 8 -97 31 -97 75 0 69 80 99 187 68z"/>
<path d="M7482 737 c-29 -30 -30 -89 -2 -117 26 -26 90 -27 113 -2 35 39 30
97 -12 129 -27 20 -75 15 -99 -10z"/>
<path d="M9112 737 c-29 -30 -30 -89 -2 -117 26 -26 90 -27 113 -2 35 39 30
97 -12 129 -27 20 -75 15 -99 -10z"/>
<path d="M9410 681 l0 -81 50 0 c61 0 90 24 90 74 0 52 -27 78 -88 84 l-52 5
0 -82z"/>
<path d="M11600 681 l0 -81 48 0 c62 0 87 24 86 82 -2 52 -21 70 -83 76 l-51
5 0 -82z"/>
<path d="M12959 741 c-30 -24 -33 -89 -5 -120 26 -29 88 -29 116 1 66 72 -35
181 -111 119z"/>
</g>
</svg>
